<?xml version="1.0" encoding="iso-8859-1"?>
<!-- Generator: Adobe Illustrator 19.0.0, SVG Export Plug-In . SVG Version: 6.00 Build 0)  -->
<svg version="1.1" id="Capa_1" xmlns="http://www.w3.org/2000/svg" xmlns:xlink="http://www.w3.org/1999/xlink" x="0px" y="0px"
	 viewBox="0 0 512 512" style="enable-background:new 0 0 512 512;" xml:space="preserve">
<g>
	<g>
		<polygon points="216.66,285.513 225.96,326.263 286.04,326.263 295.34,285.513 		"/>
	</g>
</g>
<g>
	<g>
		<path d="M326.11,285.513l-16.15,70.75H202.04l-16.15-70.75H22.81v113.91c0,29.43,23.95,53.38,53.39,53.38h359.6
			c29.44,0,53.39-23.95,53.39-53.38v-113.91H326.11z"/>
	</g>
</g>
<g>
	<g>
		<path d="M435.8,135.923h-70.573V59.197H146.773v76.726H76.2c-29.44,0-53.39,23.95-53.39,53.38v66.21h466.38v-66.21
			C489.19,159.873,465.24,135.923,435.8,135.923z M335.226,135.923H176.773V89.197h158.453V135.923z"/>
	</g>
</g>
<g>
	<g>
		<rect y="255.51" width="22.81" height="30"/>
	</g>
</g>
<g>
	<g>
		<rect x="489.19" y="255.51" width="22.81" height="30"/>
	</g>
</g>
<g>
</g>
<g>
</g>
<g>
</g>
<g>
</g>
<g>
</g>
<g>
</g>
<g>
</g>
<g>
</g>
<g>
</g>
<g>
</g>
<g>
</g>
<g>
</g>
<g>
</g>
<g>
</g>
<g>
</g>
</svg>
